<?xml version="1.0" encoding="UTF-8"?>
<svg id="Layer_2" data-name="Layer 2" xmlns="http://www.w3.org/2000/svg" viewBox="0 0 110.71 128.69">
  <defs>
    <style>
      .cls-1 {
        fill: #8dc63f;
      }

      .cls-1, .cls-2, .cls-3, .cls-4 {
        stroke-width: 0px;
      }

      .cls-5 {
        fill: #254703;
        stroke: #fff;
        stroke-miterlimit: 10;
        stroke-width: 2px;
      }

      .cls-2 {
        fill: #79ad36;
      }

      .cls-3 {
        fill: #65942d;
      }

      .cls-4 {
        fill: #fff;
      }
    </style>
  </defs>
  <g id="Layer_1-2" data-name="Layer 1">
    <g>
      <ellipse class="cls-1" cx="55.35" cy="70.81" rx="55.35" ry="36.44"/>
      <ellipse class="cls-1" cx="55.35" cy="71.03" rx="55.35" ry="36.44"/>
      <ellipse class="cls-1" cx="55.35" cy="71.25" rx="55.35" ry="36.44"/>
      <ellipse class="cls-1" cx="55.35" cy="71.46" rx="55.35" ry="36.44"/>
      <ellipse class="cls-1" cx="55.35" cy="71.68" rx="55.35" ry="36.44"/>
      <ellipse class="cls-1" cx="55.35" cy="71.9" rx="55.35" ry="36.44"/>
      <ellipse class="cls-1" cx="55.35" cy="72.11" rx="55.35" ry="36.44"/>
      <ellipse class="cls-1" cx="55.35" cy="72.33" rx="55.35" ry="36.44"/>
      <ellipse class="cls-1" cx="55.35" cy="72.55" rx="55.35" ry="36.44"/>
      <ellipse class="cls-1" cx="55.35" cy="72.76" rx="55.35" ry="36.44"/>
      <ellipse class="cls-1" cx="55.35" cy="72.98" rx="55.35" ry="36.44"/>
      <ellipse class="cls-1" cx="55.35" cy="73.2" rx="55.35" ry="36.44"/>
      <ellipse class="cls-1" cx="55.35" cy="73.41" rx="55.35" ry="36.44"/>
      <ellipse class="cls-1" cx="55.35" cy="73.63" rx="55.35" ry="36.44"/>
      <ellipse class="cls-1" cx="55.35" cy="73.85" rx="55.35" ry="36.44"/>
      <ellipse class="cls-1" cx="55.35" cy="74.06" rx="55.35" ry="36.44"/>
      <ellipse class="cls-1" cx="55.35" cy="74.28" rx="55.35" ry="36.44"/>
      <ellipse class="cls-1" cx="55.35" cy="74.49" rx="55.35" ry="36.44"/>
      <ellipse class="cls-1" cx="55.35" cy="74.71" rx="55.35" ry="36.44"/>
      <ellipse class="cls-1" cx="55.35" cy="74.93" rx="55.35" ry="36.44"/>
      <ellipse class="cls-1" cx="55.35" cy="75.14" rx="55.35" ry="36.44"/>
      <ellipse class="cls-1" cx="55.35" cy="75.36" rx="55.35" ry="36.44"/>
      <ellipse class="cls-1" cx="55.35" cy="75.58" rx="55.35" ry="36.44"/>
      <ellipse class="cls-1" cx="55.35" cy="75.79" rx="55.35" ry="36.44"/>
      <ellipse class="cls-1" cx="55.35" cy="76.01" rx="55.35" ry="36.44"/>
      <ellipse class="cls-1" cx="55.35" cy="76.23" rx="55.35" ry="36.44"/>
      <ellipse class="cls-1" cx="55.35" cy="76.44" rx="55.35" ry="36.44"/>
      <ellipse class="cls-1" cx="55.35" cy="76.66" rx="55.35" ry="36.44"/>
      <ellipse class="cls-1" cx="55.35" cy="76.88" rx="55.35" ry="36.44"/>
      <ellipse class="cls-1" cx="55.35" cy="77.09" rx="55.35" ry="36.44"/>
      <ellipse class="cls-1" cx="55.35" cy="77.31" rx="55.35" ry="36.44"/>
      <ellipse class="cls-1" cx="55.35" cy="77.53" rx="55.35" ry="36.44"/>
      <ellipse class="cls-1" cx="55.35" cy="77.74" rx="55.35" ry="36.44"/>
      <ellipse class="cls-1" cx="55.35" cy="77.96" rx="55.35" ry="36.44"/>
      <ellipse class="cls-1" cx="55.35" cy="78.18" rx="55.35" ry="36.44"/>
      <ellipse class="cls-1" cx="55.35" cy="78.39" rx="55.35" ry="36.44"/>
      <ellipse class="cls-1" cx="55.35" cy="78.61" rx="55.35" ry="36.44"/>
      <ellipse class="cls-1" cx="55.35" cy="78.82" rx="55.35" ry="36.44"/>
      <ellipse class="cls-1" cx="55.35" cy="79.04" rx="55.35" ry="36.44"/>
      <ellipse class="cls-1" cx="55.35" cy="79.26" rx="55.35" ry="36.44"/>
      <ellipse class="cls-1" cx="55.35" cy="79.47" rx="55.35" ry="36.44"/>
      <ellipse class="cls-1" cx="55.35" cy="79.69" rx="55.35" ry="36.44"/>
      <ellipse class="cls-1" cx="55.35" cy="79.91" rx="55.35" ry="36.44"/>
      <ellipse class="cls-1" cx="55.35" cy="80.12" rx="55.35" ry="36.44"/>
      <ellipse class="cls-1" cx="55.35" cy="80.34" rx="55.35" ry="36.44"/>
      <ellipse class="cls-1" cx="55.35" cy="80.56" rx="55.35" ry="36.44"/>
      <ellipse class="cls-1" cx="55.35" cy="80.77" rx="55.35" ry="36.44"/>
      <ellipse class="cls-1" cx="55.35" cy="80.99" rx="55.35" ry="36.44"/>
      <ellipse class="cls-1" cx="55.35" cy="81.21" rx="55.35" ry="36.44"/>
      <ellipse class="cls-1" cx="55.35" cy="81.42" rx="55.35" ry="36.44"/>
      <ellipse class="cls-1" cx="55.35" cy="81.64" rx="55.35" ry="36.44"/>
      <ellipse class="cls-1" cx="55.35" cy="81.86" rx="55.35" ry="36.44"/>
      <ellipse class="cls-1" cx="55.35" cy="82.07" rx="55.35" ry="36.44"/>
      <ellipse class="cls-1" cx="55.35" cy="82.29" rx="55.35" ry="36.44"/>
      <ellipse class="cls-1" cx="55.35" cy="82.51" rx="55.35" ry="36.44"/>
      <ellipse class="cls-1" cx="55.35" cy="82.72" rx="55.35" ry="36.44"/>
      <ellipse class="cls-1" cx="55.35" cy="82.94" rx="55.35" ry="36.44"/>
      <ellipse class="cls-1" cx="55.35" cy="83.16" rx="55.35" ry="36.44"/>
      <ellipse class="cls-1" cx="55.35" cy="83.37" rx="55.35" ry="36.44"/>
      <ellipse class="cls-1" cx="55.35" cy="83.59" rx="55.35" ry="36.44"/>
      <ellipse class="cls-1" cx="55.35" cy="83.8" rx="55.35" ry="36.44"/>
      <ellipse class="cls-1" cx="55.35" cy="84.02" rx="55.35" ry="36.44"/>
      <ellipse class="cls-1" cx="55.35" cy="84.24" rx="55.35" ry="36.44"/>
      <ellipse class="cls-1" cx="55.35" cy="84.45" rx="55.35" ry="36.44"/>
      <ellipse class="cls-1" cx="55.35" cy="84.67" rx="55.35" ry="36.44"/>
      <ellipse class="cls-1" cx="55.35" cy="84.89" rx="55.35" ry="36.44"/>
      <ellipse class="cls-1" cx="55.35" cy="85.1" rx="55.35" ry="36.44"/>
      <ellipse class="cls-1" cx="55.35" cy="85.32" rx="55.35" ry="36.44"/>
      <ellipse class="cls-1" cx="55.35" cy="85.54" rx="55.35" ry="36.44"/>
      <ellipse class="cls-1" cx="55.35" cy="85.75" rx="55.35" ry="36.44"/>
      <ellipse class="cls-1" cx="55.35" cy="85.97" rx="55.35" ry="36.44"/>
      <ellipse class="cls-1" cx="55.35" cy="86.19" rx="55.35" ry="36.44"/>
      <ellipse class="cls-1" cx="55.35" cy="86.4" rx="55.35" ry="36.44"/>
      <ellipse class="cls-1" cx="55.35" cy="86.62" rx="55.35" ry="36.44"/>
      <ellipse class="cls-1" cx="55.35" cy="86.84" rx="55.35" ry="36.44"/>
      <ellipse class="cls-1" cx="55.35" cy="87.05" rx="55.35" ry="36.44"/>
      <ellipse class="cls-1" cx="55.35" cy="87.27" rx="55.35" ry="36.44"/>
      <ellipse class="cls-1" cx="55.35" cy="87.49" rx="55.35" ry="36.44"/>
      <ellipse class="cls-1" cx="55.35" cy="87.7" rx="55.35" ry="36.44"/>
      <ellipse class="cls-1" cx="55.35" cy="87.92" rx="55.35" ry="36.44"/>
      <ellipse class="cls-1" cx="55.35" cy="88.13" rx="55.35" ry="36.44"/>
      <ellipse class="cls-1" cx="55.35" cy="88.35" rx="55.35" ry="36.44"/>
      <ellipse class="cls-1" cx="55.35" cy="88.57" rx="55.35" ry="36.44"/>
      <ellipse class="cls-1" cx="55.35" cy="88.78" rx="55.35" ry="36.44"/>
      <ellipse class="cls-1" cx="55.35" cy="89" rx="55.35" ry="36.44"/>
      <ellipse class="cls-1" cx="55.35" cy="89.22" rx="55.35" ry="36.44"/>
      <ellipse class="cls-1" cx="55.35" cy="89.43" rx="55.35" ry="36.44"/>
      <ellipse class="cls-1" cx="55.35" cy="89.65" rx="55.35" ry="36.44"/>
      <ellipse class="cls-1" cx="55.35" cy="89.87" rx="55.35" ry="36.44"/>
      <ellipse class="cls-1" cx="55.35" cy="90.08" rx="55.35" ry="36.44"/>
      <ellipse class="cls-1" cx="55.35" cy="90.3" rx="55.35" ry="36.44"/>
      <ellipse class="cls-1" cx="55.35" cy="90.52" rx="55.35" ry="36.44"/>
      <ellipse class="cls-1" cx="55.35" cy="90.73" rx="55.35" ry="36.44"/>
      <ellipse class="cls-1" cx="55.35" cy="90.95" rx="55.35" ry="36.44"/>
      <ellipse class="cls-1" cx="55.35" cy="91.17" rx="55.35" ry="36.44"/>
      <ellipse class="cls-1" cx="55.35" cy="91.38" rx="55.35" ry="36.44"/>
      <ellipse class="cls-1" cx="55.35" cy="91.6" rx="55.35" ry="36.44"/>
      <ellipse class="cls-1" cx="55.35" cy="91.82" rx="55.35" ry="36.44"/>
      <ellipse class="cls-1" cx="55.35" cy="92.03" rx="55.35" ry="36.44"/>
      <ellipse class="cls-1" cx="55.35" cy="92.25" rx="55.35" ry="36.44"/>
      <ellipse class="cls-1" cx="55.35" cy="70.6" rx="55.35" ry="36.44"/>
      <g>
        <path class="cls-1" d="M55.35,105.32c-29.69,0-53.85-15.67-53.85-34.94s24.16-34.94,53.85-34.94,53.85,15.67,53.85,34.94-24.16,34.94-53.85,34.94Z"/>
        <path class="cls-4" d="M55.35,36.94c14.21,0,27.52,3.61,37.49,10.18,9.58,6.31,14.86,14.57,14.86,23.26s-5.28,16.95-14.86,23.26c-9.97,6.56-23.29,10.18-37.49,10.18s-27.52-3.61-37.49-10.18c-9.58-6.31-14.86-14.57-14.86-23.26s5.28-16.95,14.86-23.26c9.97-6.56,23.29-10.18,37.49-10.18M55.35,33.94C24.78,33.94,0,50.26,0,70.38s24.78,36.44,55.35,36.44,55.35-16.31,55.35-36.44-24.78-36.44-55.35-36.44h0Z"/>
      </g>
    </g>
    <g>
      <ellipse class="cls-2" cx="55.35" cy="41.78" rx="47.89" ry="31.52"/>
      <ellipse class="cls-2" cx="55.35" cy="42.26" rx="47.89" ry="31.52"/>
      <ellipse class="cls-2" cx="55.35" cy="42.5" rx="47.89" ry="31.52"/>
      <ellipse class="cls-2" cx="55.35" cy="42.73" rx="47.89" ry="31.52"/>
      <ellipse class="cls-2" cx="55.35" cy="42.97" rx="47.89" ry="31.52"/>
      <ellipse class="cls-2" cx="55.35" cy="43.21" rx="47.89" ry="31.52"/>
      <ellipse class="cls-2" cx="55.35" cy="43.44" rx="47.89" ry="31.52"/>
      <ellipse class="cls-2" cx="55.35" cy="43.68" rx="47.89" ry="31.52"/>
      <ellipse class="cls-2" cx="55.35" cy="43.92" rx="47.89" ry="31.52"/>
      <ellipse class="cls-2" cx="55.35" cy="44.15" rx="47.89" ry="31.52"/>
      <ellipse class="cls-2" cx="55.35" cy="44.39" rx="47.89" ry="31.52"/>
      <ellipse class="cls-2" cx="55.35" cy="44.63" rx="47.89" ry="31.52"/>
      <ellipse class="cls-2" cx="55.35" cy="44.86" rx="47.89" ry="31.52"/>
      <ellipse class="cls-2" cx="55.35" cy="45.1" rx="47.89" ry="31.52"/>
      <ellipse class="cls-2" cx="55.35" cy="45.34" rx="47.89" ry="31.52"/>
      <ellipse class="cls-2" cx="55.35" cy="45.57" rx="47.89" ry="31.52"/>
      <ellipse class="cls-2" cx="55.35" cy="45.81" rx="47.89" ry="31.52"/>
      <ellipse class="cls-2" cx="55.35" cy="46.05" rx="47.89" ry="31.52"/>
      <ellipse class="cls-2" cx="55.35" cy="46.28" rx="47.89" ry="31.52"/>
      <ellipse class="cls-2" cx="55.35" cy="46.52" rx="47.89" ry="31.52"/>
      <ellipse class="cls-2" cx="55.35" cy="46.76" rx="47.89" ry="31.52"/>
      <ellipse class="cls-2" cx="55.35" cy="46.99" rx="47.89" ry="31.52"/>
      <ellipse class="cls-2" cx="55.35" cy="47.23" rx="47.89" ry="31.52"/>
      <ellipse class="cls-2" cx="55.35" cy="47.47" rx="47.89" ry="31.52"/>
      <ellipse class="cls-2" cx="55.35" cy="47.71" rx="47.89" ry="31.52"/>
      <ellipse class="cls-2" cx="55.35" cy="47.94" rx="47.89" ry="31.52"/>
      <ellipse class="cls-2" cx="55.35" cy="48.18" rx="47.89" ry="31.52"/>
      <ellipse class="cls-2" cx="55.35" cy="48.42" rx="47.89" ry="31.52"/>
      <ellipse class="cls-2" cx="55.35" cy="48.65" rx="47.89" ry="31.52"/>
      <ellipse class="cls-2" cx="55.35" cy="48.89" rx="47.89" ry="31.52"/>
      <ellipse class="cls-2" cx="55.35" cy="49.13" rx="47.89" ry="31.52"/>
      <ellipse class="cls-2" cx="55.35" cy="49.36" rx="47.89" ry="31.52"/>
      <ellipse class="cls-2" cx="55.35" cy="49.6" rx="47.89" ry="31.52"/>
      <ellipse class="cls-2" cx="55.35" cy="49.84" rx="47.89" ry="31.52"/>
      <ellipse class="cls-2" cx="55.35" cy="50.07" rx="47.89" ry="31.52"/>
      <ellipse class="cls-2" cx="55.35" cy="50.31" rx="47.89" ry="31.52"/>
      <ellipse class="cls-2" cx="55.35" cy="50.55" rx="47.89" ry="31.52"/>
      <ellipse class="cls-2" cx="55.35" cy="50.78" rx="47.89" ry="31.52"/>
      <ellipse class="cls-2" cx="55.35" cy="51.02" rx="47.89" ry="31.52"/>
      <ellipse class="cls-2" cx="55.35" cy="51.26" rx="47.89" ry="31.52"/>
      <ellipse class="cls-2" cx="55.35" cy="51.49" rx="47.89" ry="31.52"/>
      <ellipse class="cls-2" cx="55.35" cy="51.73" rx="47.89" ry="31.52"/>
      <ellipse class="cls-2" cx="55.35" cy="51.97" rx="47.89" ry="31.52"/>
      <ellipse class="cls-2" cx="55.35" cy="52.2" rx="47.89" ry="31.52"/>
      <ellipse class="cls-2" cx="55.35" cy="52.44" rx="47.89" ry="31.52"/>
      <ellipse class="cls-2" cx="55.35" cy="52.68" rx="47.89" ry="31.52"/>
      <ellipse class="cls-2" cx="55.35" cy="52.92" rx="47.89" ry="31.52"/>
      <ellipse class="cls-2" cx="55.35" cy="53.15" rx="47.89" ry="31.52"/>
      <ellipse class="cls-2" cx="55.35" cy="53.39" rx="47.89" ry="31.52"/>
      <ellipse class="cls-2" cx="55.35" cy="53.63" rx="47.89" ry="31.52"/>
      <ellipse class="cls-2" cx="55.35" cy="53.86" rx="47.89" ry="31.52"/>
      <ellipse class="cls-2" cx="55.35" cy="54.1" rx="47.89" ry="31.52"/>
      <ellipse class="cls-2" cx="55.35" cy="54.34" rx="47.89" ry="31.52"/>
      <ellipse class="cls-2" cx="55.35" cy="54.57" rx="47.89" ry="31.52"/>
      <ellipse class="cls-2" cx="55.35" cy="54.81" rx="47.89" ry="31.52"/>
      <ellipse class="cls-2" cx="55.35" cy="55.05" rx="47.89" ry="31.52"/>
      <ellipse class="cls-2" cx="55.35" cy="55.28" rx="47.89" ry="31.52"/>
      <ellipse class="cls-2" cx="55.35" cy="55.52" rx="47.89" ry="31.52"/>
      <ellipse class="cls-2" cx="55.35" cy="55.76" rx="47.89" ry="31.52"/>
      <ellipse class="cls-2" cx="55.35" cy="55.99" rx="47.89" ry="31.52"/>
      <ellipse class="cls-2" cx="55.35" cy="56.23" rx="47.89" ry="31.52"/>
      <ellipse class="cls-2" cx="55.35" cy="56.47" rx="47.89" ry="31.52"/>
      <ellipse class="cls-2" cx="55.35" cy="56.7" rx="47.89" ry="31.52"/>
      <ellipse class="cls-2" cx="55.35" cy="56.94" rx="47.89" ry="31.52"/>
      <ellipse class="cls-2" cx="55.35" cy="57.18" rx="47.89" ry="31.52"/>
      <ellipse class="cls-2" cx="55.35" cy="57.41" rx="47.89" ry="31.52"/>
      <ellipse class="cls-2" cx="55.35" cy="57.65" rx="47.89" ry="31.52"/>
      <ellipse class="cls-2" cx="55.35" cy="57.89" rx="47.89" ry="31.52"/>
      <ellipse class="cls-2" cx="55.35" cy="58.12" rx="47.89" ry="31.52"/>
      <ellipse class="cls-2" cx="55.35" cy="58.36" rx="47.89" ry="31.52"/>
      <ellipse class="cls-2" cx="55.35" cy="58.6" rx="47.89" ry="31.52"/>
      <ellipse class="cls-2" cx="55.35" cy="58.84" rx="47.89" ry="31.52"/>
      <ellipse class="cls-2" cx="55.35" cy="59.07" rx="47.89" ry="31.52"/>
      <ellipse class="cls-2" cx="55.35" cy="59.31" rx="47.89" ry="31.52"/>
      <ellipse class="cls-2" cx="55.35" cy="59.55" rx="47.89" ry="31.52"/>
      <ellipse class="cls-2" cx="55.35" cy="59.78" rx="47.89" ry="31.52"/>
      <ellipse class="cls-2" cx="55.35" cy="60.02" rx="47.89" ry="31.52"/>
      <ellipse class="cls-2" cx="55.35" cy="60.26" rx="47.89" ry="31.52"/>
      <ellipse class="cls-2" cx="55.35" cy="60.49" rx="47.89" ry="31.52"/>
      <ellipse class="cls-2" cx="55.35" cy="60.73" rx="47.89" ry="31.52"/>
      <ellipse class="cls-2" cx="55.35" cy="60.97" rx="47.89" ry="31.52"/>
      <ellipse class="cls-2" cx="55.35" cy="61.2" rx="47.89" ry="31.52"/>
      <ellipse class="cls-2" cx="55.35" cy="61.44" rx="47.89" ry="31.52"/>
      <ellipse class="cls-2" cx="55.35" cy="61.68" rx="47.89" ry="31.52"/>
      <ellipse class="cls-2" cx="55.35" cy="61.91" rx="47.89" ry="31.52"/>
      <ellipse class="cls-2" cx="55.35" cy="62.15" rx="47.89" ry="31.52"/>
      <ellipse class="cls-2" cx="55.35" cy="62.39" rx="47.89" ry="31.52"/>
      <ellipse class="cls-2" cx="55.35" cy="62.62" rx="47.89" ry="31.52"/>
      <ellipse class="cls-2" cx="55.35" cy="62.86" rx="47.89" ry="31.52"/>
      <ellipse class="cls-2" cx="55.35" cy="63.1" rx="47.89" ry="31.52"/>
      <ellipse class="cls-2" cx="55.35" cy="63.33" rx="47.89" ry="31.52"/>
      <ellipse class="cls-2" cx="55.35" cy="63.57" rx="47.89" ry="31.52"/>
      <ellipse class="cls-2" cx="55.35" cy="63.81" rx="47.89" ry="31.52"/>
      <ellipse class="cls-2" cx="55.35" cy="64.05" rx="47.89" ry="31.52"/>
      <ellipse class="cls-2" cx="55.35" cy="64.28" rx="47.89" ry="31.52"/>
      <ellipse class="cls-2" cx="55.35" cy="64.52" rx="47.89" ry="31.52"/>
      <ellipse class="cls-2" cx="55.35" cy="64.76" rx="47.89" ry="31.52"/>
      <ellipse class="cls-2" cx="55.35" cy="64.99" rx="47.89" ry="31.52"/>
      <ellipse class="cls-2" cx="55.35" cy="65.23" rx="47.89" ry="31.52"/>
      <ellipse class="cls-2" cx="55.35" cy="65.47" rx="47.89" ry="31.52"/>
      <ellipse class="cls-2" cx="55.35" cy="42.02" rx="47.89" ry="31.52"/>
      <g>
        <path class="cls-2" d="M55.35,71.57c-25.58,0-46.39-13.47-46.39-30.02S29.78,11.52,55.35,11.52s46.39,13.47,46.39,30.02-20.81,30.02-46.39,30.02Z"/>
        <path class="cls-4" d="M55.35,13.02c12.21,0,23.65,3.1,32.21,8.74,8.17,5.38,12.68,12.41,12.68,19.78s-4.5,14.4-12.68,19.78c-8.56,5.64-20,8.74-32.21,8.74s-23.65-3.1-32.21-8.74c-8.17-5.38-12.68-12.41-12.68-19.78s4.5-14.4,12.68-19.78c8.56-5.64,20-8.74,32.21-8.74M55.35,10.02c-26.45,0-47.89,14.11-47.89,31.52s21.44,31.52,47.89,31.52,47.89-14.11,47.89-31.52-21.44-31.52-47.89-31.52h0Z"/>
      </g>
    </g>
    <g>
      <ellipse class="cls-3" cx="55.35" cy="22.79" rx="34.35" ry="22.61"/>
      <ellipse class="cls-3" cx="55.35" cy="22.98" rx="34.35" ry="22.61"/>
      <ellipse class="cls-3" cx="55.35" cy="23.16" rx="34.35" ry="22.61"/>
      <ellipse class="cls-3" cx="55.35" cy="23.34" rx="34.35" ry="22.61"/>
      <ellipse class="cls-3" cx="55.35" cy="23.53" rx="34.35" ry="22.61"/>
      <ellipse class="cls-3" cx="55.35" cy="23.71" rx="34.35" ry="22.61"/>
      <ellipse class="cls-3" cx="55.35" cy="23.9" rx="34.35" ry="22.61"/>
      <ellipse class="cls-3" cx="55.35" cy="24.08" rx="34.35" ry="22.61"/>
      <ellipse class="cls-3" cx="55.35" cy="24.26" rx="34.35" ry="22.61"/>
      <ellipse class="cls-3" cx="55.35" cy="24.45" rx="34.35" ry="22.61"/>
      <ellipse class="cls-3" cx="55.35" cy="24.63" rx="34.35" ry="22.61"/>
      <ellipse class="cls-3" cx="55.35" cy="24.82" rx="34.35" ry="22.61"/>
      <ellipse class="cls-3" cx="55.35" cy="25" rx="34.35" ry="22.61"/>
      <ellipse class="cls-3" cx="55.35" cy="25.18" rx="34.35" ry="22.61"/>
      <ellipse class="cls-3" cx="55.35" cy="25.37" rx="34.35" ry="22.61"/>
      <ellipse class="cls-3" cx="55.35" cy="25.55" rx="34.35" ry="22.61"/>
      <ellipse class="cls-3" cx="55.35" cy="25.73" rx="34.35" ry="22.61"/>
      <ellipse class="cls-3" cx="55.35" cy="25.92" rx="34.35" ry="22.61"/>
      <ellipse class="cls-3" cx="55.35" cy="26.1" rx="34.35" ry="22.61"/>
      <ellipse class="cls-3" cx="55.35" cy="26.29" rx="34.35" ry="22.61"/>
      <ellipse class="cls-3" cx="55.35" cy="26.47" rx="34.35" ry="22.61"/>
      <ellipse class="cls-3" cx="55.35" cy="26.65" rx="34.35" ry="22.61"/>
      <ellipse class="cls-3" cx="55.35" cy="26.84" rx="34.35" ry="22.61"/>
      <ellipse class="cls-3" cx="55.35" cy="27.02" rx="34.35" ry="22.61"/>
      <ellipse class="cls-3" cx="55.35" cy="27.21" rx="34.35" ry="22.61"/>
      <ellipse class="cls-3" cx="55.35" cy="27.39" rx="34.35" ry="22.61"/>
      <ellipse class="cls-3" cx="55.35" cy="27.57" rx="34.35" ry="22.61"/>
      <ellipse class="cls-3" cx="55.35" cy="27.76" rx="34.35" ry="22.61"/>
      <ellipse class="cls-3" cx="55.35" cy="27.94" rx="34.35" ry="22.61"/>
      <ellipse class="cls-3" cx="55.35" cy="28.12" rx="34.35" ry="22.61"/>
      <ellipse class="cls-3" cx="55.35" cy="28.31" rx="34.35" ry="22.61"/>
      <ellipse class="cls-3" cx="55.35" cy="28.49" rx="34.35" ry="22.61"/>
      <ellipse class="cls-3" cx="55.35" cy="28.68" rx="34.35" ry="22.61"/>
      <ellipse class="cls-3" cx="55.35" cy="28.86" rx="34.35" ry="22.61"/>
      <ellipse class="cls-3" cx="55.35" cy="29.04" rx="34.35" ry="22.61"/>
      <ellipse class="cls-3" cx="55.35" cy="29.23" rx="34.35" ry="22.61"/>
      <ellipse class="cls-3" cx="55.35" cy="29.41" rx="34.35" ry="22.61"/>
      <ellipse class="cls-3" cx="55.35" cy="29.6" rx="34.35" ry="22.61"/>
      <ellipse class="cls-3" cx="55.35" cy="29.78" rx="34.35" ry="22.61"/>
      <ellipse class="cls-3" cx="55.35" cy="29.96" rx="34.35" ry="22.61"/>
      <ellipse class="cls-3" cx="55.35" cy="30.15" rx="34.35" ry="22.61"/>
      <ellipse class="cls-3" cx="55.35" cy="30.33" rx="34.35" ry="22.61"/>
      <ellipse class="cls-3" cx="55.35" cy="30.51" rx="34.35" ry="22.61"/>
      <ellipse class="cls-3" cx="55.35" cy="30.7" rx="34.35" ry="22.61"/>
      <ellipse class="cls-3" cx="55.35" cy="30.88" rx="34.35" ry="22.61"/>
      <ellipse class="cls-3" cx="55.35" cy="31.07" rx="34.35" ry="22.61"/>
      <ellipse class="cls-3" cx="55.35" cy="31.25" rx="34.35" ry="22.61"/>
      <ellipse class="cls-3" cx="55.35" cy="31.43" rx="34.35" ry="22.61"/>
      <ellipse class="cls-3" cx="55.35" cy="31.62" rx="34.35" ry="22.61"/>
      <ellipse class="cls-3" cx="55.35" cy="31.8" rx="34.35" ry="22.61"/>
      <ellipse class="cls-3" cx="55.35" cy="31.99" rx="34.35" ry="22.61"/>
      <ellipse class="cls-3" cx="55.35" cy="32.17" rx="34.35" ry="22.61"/>
      <ellipse class="cls-3" cx="55.35" cy="32.35" rx="34.35" ry="22.61"/>
      <ellipse class="cls-3" cx="55.35" cy="32.54" rx="34.35" ry="22.61"/>
      <ellipse class="cls-3" cx="55.35" cy="32.72" rx="34.35" ry="22.61"/>
      <ellipse class="cls-3" cx="55.35" cy="32.9" rx="34.35" ry="22.61"/>
      <ellipse class="cls-3" cx="55.35" cy="33.09" rx="34.35" ry="22.61"/>
      <ellipse class="cls-3" cx="55.35" cy="33.27" rx="34.35" ry="22.61"/>
      <ellipse class="cls-3" cx="55.35" cy="33.46" rx="34.35" ry="22.61"/>
      <ellipse class="cls-3" cx="55.35" cy="33.64" rx="34.35" ry="22.61"/>
      <ellipse class="cls-3" cx="55.35" cy="33.82" rx="34.35" ry="22.61"/>
      <ellipse class="cls-3" cx="55.35" cy="34.01" rx="34.35" ry="22.61"/>
      <ellipse class="cls-3" cx="55.35" cy="34.19" rx="34.35" ry="22.61"/>
      <ellipse class="cls-3" cx="55.35" cy="34.38" rx="34.35" ry="22.61"/>
      <ellipse class="cls-3" cx="55.35" cy="34.56" rx="34.35" ry="22.61"/>
      <ellipse class="cls-3" cx="55.35" cy="34.74" rx="34.35" ry="22.61"/>
      <ellipse class="cls-3" cx="55.35" cy="34.93" rx="34.35" ry="22.61"/>
      <ellipse class="cls-3" cx="55.35" cy="35.11" rx="34.35" ry="22.61"/>
      <ellipse class="cls-3" cx="55.35" cy="35.29" rx="34.35" ry="22.61"/>
      <ellipse class="cls-3" cx="55.35" cy="35.48" rx="34.35" ry="22.61"/>
      <ellipse class="cls-3" cx="55.35" cy="35.66" rx="34.35" ry="22.61"/>
      <ellipse class="cls-3" cx="55.35" cy="35.85" rx="34.35" ry="22.61"/>
      <ellipse class="cls-3" cx="55.35" cy="36.03" rx="34.35" ry="22.61"/>
      <ellipse class="cls-3" cx="55.35" cy="36.21" rx="34.35" ry="22.61"/>
      <ellipse class="cls-3" cx="55.35" cy="36.4" rx="34.35" ry="22.61"/>
      <ellipse class="cls-3" cx="55.35" cy="36.58" rx="34.35" ry="22.61"/>
      <ellipse class="cls-3" cx="55.35" cy="36.77" rx="34.35" ry="22.61"/>
      <ellipse class="cls-3" cx="55.35" cy="36.95" rx="34.35" ry="22.61"/>
      <ellipse class="cls-3" cx="55.35" cy="37.13" rx="34.35" ry="22.61"/>
      <ellipse class="cls-3" cx="55.35" cy="37.32" rx="34.35" ry="22.61"/>
      <ellipse class="cls-3" cx="55.35" cy="37.5" rx="34.35" ry="22.61"/>
      <ellipse class="cls-3" cx="55.35" cy="37.68" rx="34.35" ry="22.61"/>
      <ellipse class="cls-3" cx="55.35" cy="37.87" rx="34.35" ry="22.61"/>
      <ellipse class="cls-3" cx="55.35" cy="38.05" rx="34.35" ry="22.61"/>
      <ellipse class="cls-3" cx="55.35" cy="38.24" rx="34.35" ry="22.61"/>
      <ellipse class="cls-3" cx="55.35" cy="38.42" rx="34.35" ry="22.61"/>
      <ellipse class="cls-3" cx="55.35" cy="38.6" rx="34.35" ry="22.61"/>
      <ellipse class="cls-3" cx="55.35" cy="38.79" rx="34.35" ry="22.61"/>
      <ellipse class="cls-3" cx="55.35" cy="38.97" rx="34.35" ry="22.61"/>
      <ellipse class="cls-3" cx="55.35" cy="39.16" rx="34.35" ry="22.61"/>
      <ellipse class="cls-3" cx="55.35" cy="39.34" rx="34.35" ry="22.61"/>
      <ellipse class="cls-3" cx="55.35" cy="39.52" rx="34.35" ry="22.61"/>
      <ellipse class="cls-3" cx="55.35" cy="39.71" rx="34.35" ry="22.61"/>
      <ellipse class="cls-3" cx="55.35" cy="39.89" rx="34.35" ry="22.61"/>
      <ellipse class="cls-3" cx="55.35" cy="40.07" rx="34.35" ry="22.61"/>
      <ellipse class="cls-3" cx="55.35" cy="40.26" rx="34.35" ry="22.61"/>
      <ellipse class="cls-3" cx="55.35" cy="40.44" rx="34.35" ry="22.61"/>
      <ellipse class="cls-3" cx="55.35" cy="40.63" rx="34.35" ry="22.61"/>
      <ellipse class="cls-3" cx="55.35" cy="40.81" rx="34.35" ry="22.61"/>
      <ellipse class="cls-3" cx="55.35" cy="40.99" rx="34.35" ry="22.61"/>
      <ellipse class="cls-3" cx="55.35" cy="41.18" rx="34.35" ry="22.61"/>
      <g>
        <path class="cls-3" d="M55.35,43.72c-18.11,0-32.85-9.47-32.85-21.11S37.24,1.5,55.35,1.5s32.85,9.47,32.85,21.11-14.73,21.11-32.85,21.11Z"/>
        <path class="cls-4" d="M55.35,3c8.59,0,16.63,2.18,22.64,6.13,5.62,3.7,8.71,8.48,8.71,13.48s-3.09,9.78-8.71,13.48c-6,3.95-14.04,6.13-22.64,6.13s-16.63-2.18-22.64-6.13c-5.62-3.7-8.71-8.48-8.71-13.48s3.09-9.78,8.71-13.48c6-3.95,14.04-6.13,22.64-6.13M55.35,0C36.38,0,21.01,10.12,21.01,22.61s15.38,22.61,34.35,22.61,34.35-10.12,34.35-22.61S74.32,0,55.35,0h0Z"/>
      </g>
    </g>
    <ellipse class="cls-5" cx="55.35" cy="22.98" rx="9.77" ry="6.43"/>
  </g>
</svg>